<svg 
 xmlns="http://www.w3.org/2000/svg"
 xmlns:xlink="http://www.w3.org/1999/xlink"
 width="62px" height="58px">
<defs>
<linearGradient id="PSgrad_0" x1="0%" x2="100%" y1="0%" y2="0%">
  <stop offset="0%" stop-color="rgb(17,133,110)" stop-opacity="1" />
  <stop offset="100%" stop-color="rgb(52,200,104)" stop-opacity="1" />
</linearGradient>

</defs>
<path fill-rule="evenodd"  fill="url(#PSgrad_0)"
 d="M60.598,23.497 C60.677,22.996 60.745,22.491 60.806,21.983 L61.999,22.153 L60.598,23.497 ZM49.820,33.831 C52.056,29.974 53.535,25.639 54.061,21.019 L59.619,21.813 C59.496,22.854 59.335,23.885 59.130,24.905 L49.820,33.831 ZM20.211,49.579 C17.904,49.579 15.634,49.345 13.428,48.892 L14.378,43.442 C16.257,43.845 18.208,44.060 20.211,44.060 C22.509,44.060 24.739,43.778 26.872,43.251 C28.192,43.548 29.669,43.750 31.250,43.750 C34.286,43.750 37.705,43.009 41.127,40.789 L39.436,38.267 C37.520,39.510 35.600,40.193 33.774,40.506 C41.176,36.320 46.390,28.815 47.315,20.055 L52.872,20.849 C52.059,28.123 48.785,34.861 43.449,40.111 C37.242,46.217 28.988,49.579 20.211,49.579 ZM30.683,40.713 C26.026,40.557 22.537,38.402 22.312,38.259 L20.642,40.795 C20.794,40.892 22.200,41.770 24.408,42.544 C23.041,42.762 21.640,42.877 20.211,42.877 C18.278,42.877 16.394,42.668 14.582,42.273 L15.499,37.015 L15.225,36.753 C16.822,37.146 18.490,37.358 20.211,37.358 C23.936,37.358 27.427,36.374 30.435,34.661 C30.620,34.675 30.809,34.684 30.999,34.684 C35.046,34.684 38.338,31.446 38.338,27.465 C38.338,27.180 38.320,26.901 38.287,26.625 C39.519,24.330 40.318,21.774 40.564,19.061 L40.579,19.092 L46.125,19.885 C45.152,29.215 39.070,37.077 30.683,40.713 ZM33.396,20.643 C33.683,19.560 33.836,18.424 33.836,17.253 C33.836,12.655 31.482,8.599 27.896,6.185 L30.393,1.208 C31.044,1.610 31.669,2.047 32.264,2.520 L39.437,16.816 C39.440,16.962 39.448,17.106 39.448,17.253 C39.448,19.948 38.868,22.511 37.831,24.833 C37.049,22.876 35.424,21.334 33.396,20.643 ZM30.999,-0.001 L31.130,0.261 C31.063,0.220 30.998,0.176 30.931,0.135 L30.999,-0.001 ZM32.634,17.253 C32.634,18.322 32.493,19.359 32.229,20.349 C31.829,20.282 31.418,20.245 30.999,20.245 C26.952,20.245 23.659,23.484 23.659,27.465 C23.659,27.973 23.713,28.469 23.816,28.947 C22.674,29.289 21.464,29.474 20.211,29.474 C14.671,29.474 9.970,25.890 8.371,20.957 L14.062,20.143 C15.159,22.397 17.499,23.954 20.211,23.954 C23.973,23.954 27.023,20.954 27.023,17.253 C27.023,15.300 26.173,13.542 24.818,12.318 L27.355,7.263 C30.545,9.477 32.634,13.129 32.634,17.253 ZM20.211,22.772 C18.117,22.772 16.289,21.638 15.325,19.963 L21.419,19.092 L24.258,13.435 C25.225,14.428 25.822,15.773 25.822,17.253 C25.822,20.296 23.304,22.772 20.211,22.772 ZM30.999,23.183 C33.403,23.183 35.352,25.100 35.352,27.465 C35.352,29.829 33.403,31.746 30.999,31.746 C28.595,31.746 26.645,29.829 26.645,27.465 C26.645,25.100 28.595,23.183 30.999,23.183 ZM20.211,30.656 C21.585,30.656 22.910,30.454 24.161,30.082 C24.939,32.042 26.563,33.588 28.591,34.283 C26.056,35.495 23.213,36.176 20.211,36.176 C17.775,36.176 15.448,35.724 13.302,34.909 L2.440,24.493 C2.090,23.666 1.796,22.810 1.568,21.929 L7.164,21.129 C8.856,26.641 14.055,30.656 20.211,30.656 ZM0.372,22.100 C0.419,22.287 0.471,22.472 0.523,22.657 L-0.001,22.153 L0.372,22.100 ZM13.824,56.973 L11.839,58.000 L12.072,56.665 C12.652,56.780 13.236,56.883 13.824,56.973 ZM13.224,50.055 C15.480,50.517 17.816,50.761 20.211,50.761 C22.609,50.761 24.951,50.516 27.210,50.051 L15.658,56.026 C14.519,55.898 13.390,55.725 12.275,55.503 L13.224,50.055 ZM46.722,38.293 L47.922,45.179 C45.074,47.917 41.879,50.183 38.436,51.938 L32.099,48.662 C37.879,46.544 42.915,42.928 46.722,38.293 ZM49.277,52.946 C48.072,53.899 46.825,54.788 45.541,55.612 L39.714,52.599 C42.793,50.952 45.631,48.925 48.167,46.585 L49.277,52.946 ZM50.158,58.000 L46.747,56.236 C47.692,55.612 48.612,54.956 49.507,54.270 L50.158,58.000 Z"/>
</svg>