<?xml version="1.0" encoding="utf-8"?>
<!-- Generator: Adobe Illustrator 16.0.0, SVG Export Plug-In . SVG Version: 6.00 Build 0)  -->
<!DOCTYPE svg PUBLIC "-//W3C//DTD SVG 1.1//EN" "http://www.w3.org/Graphics/SVG/1.1/DTD/svg11.dtd">
<svg width="512" height="512" xmlns="http://www.w3.org/2000/svg">
	<g>
		<title>background</title>
		<rect fill="none" id="canvas_background" height="402" width="582" y="-1" x="-1"/>
	</g>
	<g>
		<title>Layer 1</title>
		<path fill="#ffffff" id="svg_1" d="m480,16l0,32l-32,0l0,-32l-32,0l0,32l-32,0l0,-32l-32,0l0,32l0,64l32,32l0,128l-32,0l0,-32l-64,0l0,32l-64,0l0,-32l-64,0l0,32l-32,0l0,-128l32,-32l0,-64l0,-32l-32,0l0,32l-32,0l0,-32l-32,0l0,32l-32,0l0,-32l-32,0l0,32l0,64l32,32l0,128l0,224l160,0l0,-64c0,-35.375 28.656,-64 64,-64s64,28.625 64,64l0,64l160,0l0,-224l0,-128l32,-32l0,-64l0,-32l-32,0zm-416,256l0,-48c0,-8.875 7.156,-16 16,-16s16,7.125 16,16l0,48l-32,0zm352,0l0,-48c0,-8.875 7.156,-16 16,-16s16,7.125 16,16l0,48l-32,0z"/>
	</g>
</svg>